<svg xmlns="http://www.w3.org/2000/svg" viewBox="0 0 34 34"><defs><style>.cls-1{fill:none;}.cls-2{fill:#0e9c57;}.cls-3{fill:#53ba6f;}</style></defs><title>ic_great_breakfast_34px</title><g id="Layer_2" data-name="Layer 2"><g id="Layer_1-2" data-name="Layer 1"><path class="cls-1" d="M0,0H34V34H0Z"/><path class="cls-2" d="M28.33,4.25H5.67V18.42a5.67,5.67,0,0,0,5.67,5.67h8.5a5.67,5.67,0,0,0,5.67-5.67V14.17h2.83a2.83,2.83,0,0,0,2.83-2.83V7.08A2.83,2.83,0,0,0,28.33,4.25Zm0,7.08H25.5V7.08h2.83Z"/><rect class="cls-2" x="5.67" y="26.92" width="22.67" height="2.83"/><path class="cls-3" d="M7.33,22.42,25.5,4.25H5.67V18.42a5.54,5.54,0,0,0,1.67,4Z"/></g></g></svg>