<?xml version="1.0" encoding="utf-8"?>
<!-- Generator: Adobe Illustrator 23.0.4, SVG Export Plug-In . SVG Version: 6.00 Build 0)  -->
<svg version="1.1" id="ic_x5F_Nightlife_x5F_32px" xmlns="http://www.w3.org/2000/svg" xmlns:xlink="http://www.w3.org/1999/xlink"
	 x="0px" y="0px" width="32px" height="32px" viewBox="0 0 32 32" enable-background="new 0 0 32 32" xml:space="preserve">
<path fill="#9FC1F9" d="M2,16C2,8.2,8.2,2,16,2s13.9,6.2,13.9,14S23.8,30,16,30S2,23.8,2,16z"/>
<g>
	<path fill="#4184F3" d="M7.69,7.71c0.83-1.95,2.03-3.63,3.34-4.82c-3.92,1.5-6.7,4.4-8.11,8.07C4.11,9.65,5.75,8.54,7.69,7.71z
		 M7.69,24.33c-1.95-0.84-3.58-1.97-4.77-3.26c1.4,3.7,4.34,6.6,8.07,8.03C9.69,27.9,8.53,26.27,7.69,24.33z"/>
	<path fill="#9FC1F9" d="M24.31,7.71c1.95,0.84,3.57,1.95,4.75,3.26c-1.41-3.67-4.34-6.64-8.01-8.05
		C22.36,4.12,23.47,5.77,24.31,7.71z"/>
	<path fill="#4184F3" d="M29.07,21.06c-1.19,1.32-2.84,2.43-4.78,3.25c-0.84,1.95-1.92,3.58-3.24,4.77
		C24.75,27.67,27.66,24.74,29.07,21.06z"/>
	<path fill="#80ADF7" d="M12.95,25.74c-1.9-0.25-3.67-0.74-5.24-1.43c0.84,1.95,1.96,3.6,3.28,4.79c1.09,0.42,2.22,0.69,3.43,0.83
		C13.86,29,13.34,27.55,12.95,25.74z"/>
	<path fill="#4285F4" d="M19.05,6.29c1.9,0.25,3.71,0.77,5.24,1.42c-0.83-1.95-1.93-3.6-3.24-4.79c-1.09-0.42-2.26-0.69-3.47-0.83
		C18.16,3.03,18.66,4.49,19.05,6.29z"/>
	<path fill="#9FC1F9" d="M24.29,24.31c-1.57,0.67-3.33,1.18-5.22,1.45c-0.39,1.79-0.9,3.24-1.47,4.19c1.2-0.14,2.35-0.45,3.45-0.87
		C22.35,27.88,23.45,26.25,24.29,24.31z"/>
	<path fill="#C6DAFC" d="M7.69,7.71c1.57-0.67,3.35-1.16,5.24-1.43c0.39-1.79,0.91-3.26,1.48-4.19c-1.2,0.14-2.28,0.38-3.38,0.8
		C9.72,4.09,8.53,5.77,7.69,7.71z"/>
	<path fill="#2C66BF" d="M19.05,6.28c-0.39-1.79-0.9-3.26-1.47-4.19C17.06,2.03,16.53,2,16,2c-0.53,0-1.05,0.03-1.59,0.09
		c-0.57,0.95-1.09,2.4-1.48,4.19c0.99-0.13,2.02-0.2,3.05-0.2C17.05,6.08,18.07,6.15,19.05,6.28z"/>
	<path fill="#6199F6" d="M12.95,25.74c0.39,1.79,0.9,3.24,1.47,4.19C14.94,29.99,15.47,30,16,30c0.53,0,1.06-0.01,1.58-0.07
		c0.57-0.95,1.08-2.4,1.47-4.19c-0.99,0.13-2.02,0.2-3.05,0.2C14.95,25.95,13.93,25.88,12.95,25.74z M25.72,19.07
		c-0.25,1.9-0.74,3.67-1.43,5.24c1.95-0.84,3.52-1.86,4.78-3.25c0.42-1.09,0.69-2.25,0.83-3.46C28.96,18.18,27.53,18.68,25.72,19.07
		z"/>
	<path fill="#2C66BF" d="M6.28,12.95C6.53,11.05,7,9.28,7.69,7.71c-1.95,0.84-3.6,1.94-4.78,3.25c-0.42,1.09-0.68,2.25-0.82,3.46
		C3.02,13.85,4.47,13.36,6.28,12.95z"/>
	<path fill="#6199F6" d="M7.69,24.33c-0.67-1.57-1.16-3.35-1.43-5.24c-1.79-0.39-3.24-0.9-4.19-1.47c0.14,1.2,0.43,2.35,0.85,3.45
		C4.12,22.37,5.75,23.49,7.69,24.33z"/>
	<path fill="#4184F3" d="M24.29,7.71c0.67,1.57,1.18,3.35,1.45,5.24c1.79,0.39,3.23,0.9,4.18,1.47c-0.14-1.2-0.41-2.35-0.83-3.45
		C27.87,9.66,26.23,8.54,24.29,7.71z"/>
	<path fill="#C6DAFC" d="M25.72,12.95c-0.25-1.9-0.74-3.67-1.43-5.24c-1.57-0.67-3.35-1.16-5.24-1.43c0.36,1.68,0.64,3.68,0.8,5.87
		C22.04,12.32,24.04,12.59,25.72,12.95z M6.28,19.07c0.25,1.9,0.74,3.67,1.43,5.24c1.57,0.67,3.35,1.16,5.24,1.43
		c-0.36-1.68-0.64-3.68-0.8-5.87C9.96,19.72,7.96,19.45,6.28,19.07z"/>
	<path fill="#80ADF7" d="M19.85,19.87c-0.15,2.19-0.42,4.19-0.8,5.87c1.9-0.25,3.67-0.74,5.24-1.43c0.67-1.57,1.16-3.35,1.43-5.24
		C24.04,19.45,22.04,19.72,19.85,19.87z"/>
	<path fill="#4184F3" d="M12.93,6.28c-1.9,0.25-3.67,0.73-5.24,1.42c-0.76,1.79-1.14,3.36-1.41,5.25c1.68-0.36,3.68-0.62,5.87-0.78
		C12.26,10.74,12.49,8.09,12.93,6.28z"/>
	<path fill="#2C66BF" d="M16,20c-1.33,0-2.62-0.06-3.85-0.14c0.15,2.19,0.42,4.2,0.8,5.88c1.09,0.15,1.87,0.2,3.05,0.2
		c1.05,0,2.07-0.07,3.05-0.2c0.36-1.68,0.64-3.69,0.8-5.88C18.62,19.96,17.33,20,16,20z"/>
	<path fill="#6199F6" d="M16,12.03c1.33,0,2.62,0.06,3.85,0.14c-0.15-2.19-0.42-4.21-0.8-5.89c-0.99-0.13-2.01-0.2-3.05-0.2
		c-1.05,0-2.09,0.07-3.07,0.2c-0.35,1.55-0.48,2.41-0.78,5.89C13.38,12.09,14.67,12.03,16,12.03z"/>
	<path fill="#9FC1F9" d="M6.28,12.95c-1.79,0.39-3.24,0.9-4.19,1.47c-0.08,0.66-0.13,1.85-0.02,3.2c0.95,0.57,2.42,1.06,4.21,1.45
		c-0.13-0.99-0.2-2.02-0.2-3.05S6.14,13.95,6.28,12.95z M25.72,19.07c1.79-0.39,3.24-0.9,4.19-1.47C29.97,17.09,30,16.53,30,16
		c0-0.45-0.05-1.36-0.08-1.58c-0.95-0.57-2.4-1.08-4.2-1.47c0.13,0.99,0.2,2.02,0.2,3.05S25.86,18.09,25.72,19.07z"/>
	<path fill="#80ADF7" d="M12.01,16.02c0-1.33,0.06-2.62,0.14-3.85c-2.19,0.15-4.19,0.4-5.87,0.78c-0.13,0.99-0.2,2.04-0.2,3.07
		s0.07,2.07,0.2,3.05c1.68,0.36,3.68,0.64,5.87,0.8C12.06,18.64,12.01,17.35,12.01,16.02z"/>
	<path fill="#2C66BF" d="M19.99,16.02c0,1.33-0.06,2.62-0.14,3.85c2.19-0.15,4.19-0.42,5.87-0.8c0.13-0.99,0.2-2.02,0.2-3.05
		s-0.07-2.07-0.2-3.05c-1.68-0.36-3.68-0.64-5.87-0.8C19.94,13.4,19.99,14.69,19.99,16.02z"/>
	<path fill="#4184F3" d="M19.85,12.17c-1.23-0.08-2.52-0.14-3.85-0.14s-2.62,0.06-3.85,0.14c-0.08,1.23-0.14,2.52-0.14,3.85
		s0.06,2.62,0.14,3.85c1.23,0.08,2.52,0.14,3.85,0.14s2.62-0.06,3.85-0.14c0.08-1.23,0.14-2.52,0.14-3.85S19.94,13.4,19.85,12.17z"
		/>
	<circle fill="#9FC1F9" cx="28" cy="28" r="2"/>
	<circle fill="#9FC1F9" cx="26.5" cy="3.5" r="1.5"/>
	<circle fill="#9FC1F9" cx="3" cy="7" r="1"/>
</g>
</svg>
