<svg xmlns="http://www.w3.org/2000/svg" viewBox="0 0 34 34"><defs><style>.cls-1{fill:#f3b300;}.cls-2{fill:#fbc730;}.cls-3{fill:none;}</style></defs><title>ic_user_favorite_34px</title><g id="Layer_2" data-name="Layer 2"><g id="icon"><path class="cls-1" d="M31.14,13.87a.49.49,0,0,0-.41-.33l-9.36-1.08L17.43,3.82A.46.46,0,0,0,17,3.54a.49.49,0,0,0-.44.28l-3.94,8.64L3.26,13.55a.5.5,0,0,0-.41.33.49.49,0,0,0,.14.5l6.95,6.33L8.07,29.89a.48.48,0,0,0,.19.48.51.51,0,0,0,.52,0L17,25.81l8.22,4.59a.47.47,0,0,0,.52,0,.49.49,0,0,0,.19-.48l-1.86-9.17L31,14.36A.48.48,0,0,0,31.14,13.87Z"/><path class="cls-2" d="M17,3.54a.49.49,0,0,0-.44.28l-3.94,8.64L3.26,13.55a.5.5,0,0,0-.41.33.49.49,0,0,0,.14.5l6.95,6.33L8.07,29.89a.48.48,0,0,0,.19.48.51.51,0,0,0,.52,0L17,25.81Z"/><rect class="cls-3" width="34" height="34"/></g></g></svg>