<svg xmlns="http://www.w3.org/2000/svg" viewBox="0 0 34 34"><defs><style>.cls-1{fill:#3b81f6;}.cls-2{fill:#5e97f9;}.cls-3{fill:#fcbc00;}.cls-4{fill:none;}</style></defs><title>ic_pool_34px</title><g id="Layer_2" data-name="Layer 2"><g id="Layer_1-2" data-name="Layer 1"><path class="cls-1" d="M31.17,29.75a5.41,5.41,0,0,1-3.09-.91,2.88,2.88,0,0,0-3.26,0,5.7,5.7,0,0,1-6.18,0,2.88,2.88,0,0,0-3.26,0,5.41,5.41,0,0,1-3.09.91,5.42,5.42,0,0,1-3.09-.91,2.63,2.63,0,0,0-1.63-.51,2.63,2.63,0,0,0-1.63.51,5.42,5.42,0,0,1-3.09.91V26.92a2.63,2.63,0,0,0,1.63-.51,5.42,5.42,0,0,1,3.09-.91,5.42,5.42,0,0,1,3.09.91,2.63,2.63,0,0,0,1.63.51,2.63,2.63,0,0,0,1.63-.51,5.7,5.7,0,0,1,6.18,0,2.88,2.88,0,0,0,3.26,0,5.7,5.7,0,0,1,6.18,0,2.63,2.63,0,0,0,1.63.51Z"/><path class="cls-2" d="M31.17,23.37a5.41,5.41,0,0,1-3.09-.91,2.88,2.88,0,0,0-3.26,0,5.7,5.7,0,0,1-6.18,0,2.88,2.88,0,0,0-3.26,0,5.41,5.41,0,0,1-3.09.91,5.42,5.42,0,0,1-3.09-.91A2.63,2.63,0,0,0,7.56,22a2.63,2.63,0,0,0-1.63.51,5.42,5.42,0,0,1-3.09.91V20.54A2.63,2.63,0,0,0,4.47,20a5.42,5.42,0,0,1,3.09-.91,5.42,5.42,0,0,1,3.09.91,2.63,2.63,0,0,0,1.63.51A2.63,2.63,0,0,0,13.92,20a5.7,5.7,0,0,1,6.18,0,2.88,2.88,0,0,0,3.26,0,5.7,5.7,0,0,1,6.18,0,2.63,2.63,0,0,0,1.63.51Z"/><path class="cls-3" d="M12.29,17a2.63,2.63,0,0,0,1.63-.51,5.7,5.7,0,0,1,6.18,0,2.88,2.88,0,0,0,3.26,0c.17-.1.36-.22.58-.33L14.85,7.08c-2.2-2.2-4.23-2.85-7.77-2.83V7.79a7,7,0,0,1,5.67,2.12l1.42,1.42-4.6,4.6a7,7,0,0,1,1.09.56A2.63,2.63,0,0,0,12.29,17Z"/><circle class="cls-3" cx="23.37" cy="7.79" r="3.54"/><rect class="cls-4" width="34" height="34"/></g></g></svg>