<svg xmlns="http://www.w3.org/2000/svg" viewBox="0 0 30 30"><defs><linearGradient x1=".3" y1=".3" x2=".6" y2=".7" stop-color="#263238" id="a"><stop stop-opacity=".2" offset="0"/><stop stop-opacity="0" offset="1"/></linearGradient></defs><path fill="#8BC34A" d="M24.64 3.5a15 15 0 0 1-19.28 23z"/><path fill="#75AC3F" d="M24.64 3.5a15 15 0 0 0-19.28 23z"/><path d="M31.5 20.7L22.9 12l-4.7 4.7-4.6-4.7-.8.7-4-4-1.3 13.4 9.3 9.3z" fill="url(#a)"/><path fill="#EEE" d="M12.2 15.5a2 2 0 1 0 0-4 2 2 0 0 0 0 4zm9.3-4h-6v5.3H8.8v-8H7.5v13.4h1.3v-2.7h13.4v2.7h1.3v-8.7a2 2 0 0 0-2-2z"/></svg>