<svg xmlns="http://www.w3.org/2000/svg" viewBox="0 0 34 34"><defs><style>.cls-1{fill:#b2b2b2;}.cls-2{fill:#4184f3;}.cls-3{fill:#258943;}.cls-4{fill:none;}.cls-5{fill:#88abda;}.cls-6{fill:#0e9c57;}</style></defs><title>ic_resturants_34px</title><g id="Layer_2" data-name="Layer 2"><g id="icon"><path class="cls-1" d="M19.87,7.53v7h2.79v8.22l2.83-.12V2.83C22.59,2.83,19.87,5.67,19.87,7.53Z"/><path class="cls-1" d="M14.27,3.41V9.28H12.51V3.41H10.16V9.28H8.4V3.41H6.05v7a5.28,5.28,0,0,0,10.56,0v-7Z"/><path class="cls-1" d="M10.16,14.56h2.35v4.7H10.16Z"/><path class="cls-2" d="M11.33,31.13A2.63,2.63,0,0,1,8.5,28.78V19.39A2.63,2.63,0,0,1,11.33,17a2.63,2.63,0,0,1,2.83,2.35v9.39A2.63,2.63,0,0,1,11.33,31.13Z"/><path class="cls-3" d="M24,31a2.56,2.56,0,0,1-2.72-2.35V19.27A2.56,2.56,0,0,1,24,16.92a2.56,2.56,0,0,1,2.72,2.35v9.39A2.56,2.56,0,0,1,24,31Z"/><rect class="cls-4" x="9.92" y="26.92" width="4.25" height="1.42"/><path class="cls-5" d="M11.33,17A2.63,2.63,0,0,0,8.5,19.39v9.39a2.63,2.63,0,0,0,2.83,2.35Z"/><path class="cls-6" d="M24.08,17h.56a3.08,3.08,0,0,0-.67-.08,2.56,2.56,0,0,0-2.72,2.35v9.39A2.56,2.56,0,0,0,24,31h.11Z"/><rect class="cls-4" width="34" height="34"/></g></g></svg>