<svg xmlns="http://www.w3.org/2000/svg" viewBox="0 0 34 34"><defs><style>.cls-1{fill:#3d81f6;}.cls-2{fill:#cecece;}.cls-3{fill:none;}</style></defs><title>ic_pets_allowed_34px</title><g id="Layer_2" data-name="Layer 2"><g id="Layer_1-2" data-name="Layer 1"><circle class="cls-1" cx="6.37" cy="13.46" r="3.54"/><circle class="cls-1" cx="12.75" cy="7.79" r="3.54"/><circle class="cls-1" cx="21.25" cy="7.79" r="3.54"/><circle class="cls-1" cx="27.62" cy="13.46" r="3.54"/><path class="cls-2" d="M24.57,21c-1.24-1.44-2.27-2.68-3.51-4.12a6,6,0,0,0-2.47-1.87,3.31,3.31,0,0,0-.47-.12A6.21,6.21,0,0,0,17,14.87h0a6.21,6.21,0,0,0-1.12.07,3.31,3.31,0,0,0-.47.12,6,6,0,0,0-2.47,1.87c-1.24,1.44-2.27,2.68-3.51,4.12C7.57,22.9,5.3,25,5.72,27.84A4.47,4.47,0,0,0,9,31.13c1,.21,4.34-.62,7.85-.62h.26c3.51,0,6.82.82,7.85.62a4.47,4.47,0,0,0,3.3-3.29C28.7,25,26.42,22.9,24.57,21Z"/><rect class="cls-3" width="34" height="34"/><path class="cls-2" d="M17,14.87h0a6.21,6.21,0,0,0-1.12.07,3.31,3.31,0,0,0-.47.12,6,6,0,0,0-2.47,1.87c-1.24,1.44-2.27,2.68-3.51,4.12C7.57,22.9,5.3,25,5.72,27.84A4.47,4.47,0,0,0,9,31.13c1,.21,4.34-.62,7.85-.62H17Z"/></g></g></svg>